<svg xmlns="http://www.w3.org/2000/svg" viewBox="0 0 700 700"><defs><style>.cls-1{fill:#0095ff;}.cls-2{fill:#fff;}</style></defs><title>icon</title><g id="Layer_2" data-name="Layer 2"><g id="Layer_1-2" data-name="Layer 1"><g id="Layer_2-2" data-name="Layer 2"><g id="Logo_copy_2" data-name="Logo copy 2"><path id="Shape_1_copy_4" data-name="Shape 1 copy 4" class="cls-1" d="M700,202C699.86,90.62,543.08.2,349.8,0S-.11,89.88,0,201.2c.1,95.26,115,175.21,269.23,196.38-12.52,35.62-33.42,77.62-66.26,98.57,63.33.16,125.72-49.49,168.46-93.37C554.84,396.7,700.11,309.17,700,202Z"/><path id="WP_Social_Proof" data-name="WP Social Proof" class="cls-2" d="M117.9,228.52l-8.64-34.68h-.14l-8.5,34.7H89.26l-13.52-51H86.95L95,212.26h.14l8.86-34.7H114.5l8.71,35.13h.15l8.35-35.13h11l-13.72,51H117.86Zm49.91-27a23.35,23.35,0,0,0,3.71-.28,8.58,8.58,0,0,0,3.14-1.13,6,6,0,0,0,2.18-2.32,9.78,9.78,0,0,0,0-7.89,6,6,0,0,0-2.18-2.32,8.62,8.62,0,0,0-3.14-1.13,23.49,23.49,0,0,0-3.71-.28H159.1v15.28h8.71Zm3.07-24a21.29,21.29,0,0,1,8.15,1.4,15.2,15.2,0,0,1,5.45,3.67,14.09,14.09,0,0,1,3.08,5.22,19.6,19.6,0,0,1,0,12.1,14,14,0,0,1-3.08,5.25A15.19,15.19,0,0,1,179,208.8a21.31,21.31,0,0,1-8.15,1.39H159.1v18.28H147.88V177.54h23Zm53.06,38.42a8.19,8.19,0,0,0,2.46,2.9,10.7,10.7,0,0,0,3.61,1.65,17.13,17.13,0,0,0,4.29.54,22.45,22.45,0,0,0,3.21-.25,11.27,11.27,0,0,0,3.21-1,7.07,7.07,0,0,0,2.5-2,4.92,4.92,0,0,0,1-3.18,4.51,4.51,0,0,0-1.32-3.38,10.51,10.51,0,0,0-3.46-2.14,35.06,35.06,0,0,0-4.86-1.5c-1.81-.43-3.64-.9-5.5-1.43a48.19,48.19,0,0,1-5.57-1.75,19.07,19.07,0,0,1-4.86-2.68,12.54,12.54,0,0,1-3.46-4.1,12.4,12.4,0,0,1-1.33-6,13.39,13.39,0,0,1,1.68-6.82,15.25,15.25,0,0,1,4.4-4.82,19.16,19.16,0,0,1,6.14-2.85,26.16,26.16,0,0,1,6.85-.92,32.41,32.41,0,0,1,7.67.89,19.16,19.16,0,0,1,6.54,2.9,14.58,14.58,0,0,1,4.51,5.11,15.56,15.56,0,0,1,1.7,7.55H242.5a9,9,0,0,0-1-3.79,6.3,6.3,0,0,0-2.19-2.36,9.21,9.21,0,0,0-3.1-1.22,19.23,19.23,0,0,0-3.82-.36,13.16,13.16,0,0,0-2.72.28,7.37,7.37,0,0,0-2.47,1,6.2,6.2,0,0,0-1.81,1.78,4.81,4.81,0,0,0-.71,2.72,4.56,4.56,0,0,0,.56,2.42,5.14,5.14,0,0,0,2.25,1.71,28.18,28.18,0,0,0,4.64,1.57q3,.79,7.74,2c1,.19,2.25.54,4,1a18.81,18.81,0,0,1,5,2.39,15.27,15.27,0,0,1,4.33,4.4,12.48,12.48,0,0,1,1.81,7,15.62,15.62,0,0,1-1.35,6.5,14.13,14.13,0,0,1-4,5.17,19.37,19.37,0,0,1-6.64,3.38,31.43,31.43,0,0,1-9.17,1.22,32.32,32.32,0,0,1-8.18-1,20.66,20.66,0,0,1-7-3.17,16.16,16.16,0,0,1-4.82-5.63,16.9,16.9,0,0,1-1.71-8.14H223a9.33,9.33,0,0,0,1,4.33Zm46.13-1.53a11.27,11.27,0,0,0,1.47,3.79,7.71,7.71,0,0,0,2.75,2.68,8.37,8.37,0,0,0,4.28,1,8.55,8.55,0,0,0,4.32-.95,7.63,7.63,0,0,0,2.78-2.68,11.48,11.48,0,0,0,1.47-3.79,21.91,21.91,0,0,0,.43-4.32,22.46,22.46,0,0,0-.43-4.35,11.09,11.09,0,0,0-1.47-3.79,8,8,0,0,0-2.78-2.68,8.33,8.33,0,0,0-4.32-1,7.8,7.8,0,0,0-7,3.72,10.86,10.86,0,0,0-1.47,3.79,21.61,21.61,0,0,0-.43,4.35,21.09,21.09,0,0,0,.43,4.32ZM260.84,202a17.41,17.41,0,0,1,3.87-6.14,17.2,17.2,0,0,1,6-3.92,21.06,21.06,0,0,1,7.89-1.4,21.41,21.41,0,0,1,7.89,1.4A16.81,16.81,0,0,1,296.37,202a22.47,22.47,0,0,1,1.36,8,22.18,22.18,0,0,1-1.36,8,17.27,17.27,0,0,1-3.85,6.11,16.79,16.79,0,0,1-6,3.89,21.9,21.9,0,0,1-7.89,1.35A21.58,21.58,0,0,1,270.7,228a16.76,16.76,0,0,1-6-3.89,17.45,17.45,0,0,1-3.87-6.11,22.43,22.43,0,0,1-1.35-8,22.72,22.72,0,0,1,1.35-8Zm61.06-3.82a7.11,7.11,0,0,0-4.07,1.13,8.69,8.69,0,0,0-2.68,2.85,12.33,12.33,0,0,0-1.47,3.85,21.21,21.21,0,0,0-.43,4.18,20.29,20.29,0,0,0,.43,4.07,12.49,12.49,0,0,0,1.4,3.75,8,8,0,0,0,2.6,2.75,7.16,7.16,0,0,0,4,1.13,7.43,7.43,0,0,0,5.63-2,9.67,9.67,0,0,0,2.47-5.47h9.78q-1,7.36-5.71,11.21a18.45,18.45,0,0,1-12.07,3.85,20.29,20.29,0,0,1-7.61-1.39,16.75,16.75,0,0,1-5.88-3.89,17.63,17.63,0,0,1-3.79-6,20.5,20.5,0,0,1-1.36-7.61,24.58,24.58,0,0,1,1.25-8,17.89,17.89,0,0,1,3.69-6.36,16.72,16.72,0,0,1,5.92-4.18,20.16,20.16,0,0,1,8-1.5,23.21,23.21,0,0,1,6.32.86,16.9,16.9,0,0,1,5.42,2.6,13.46,13.46,0,0,1,5.63,10.54h-9.93q-1-6.36-7.49-6.36h0Zm23.67-12.4V177.4h10.14v8.35Zm10.14,5.71v36.92H345.57v-36.8h10.14Zm17.71,11.36a5.76,5.76,0,0,1,2-4.28,7.72,7.72,0,0,1,4.71-1.28,16.9,16.9,0,0,1,2.54.18,5.63,5.63,0,0,1,2.07.71,3.94,3.94,0,0,1,1.43,1.5,5.34,5.34,0,0,1,.53,2.6,2.72,2.72,0,0,1-.92,2.39,6.76,6.76,0,0,1-2.72,1.25,26.66,26.66,0,0,1-3.92.64q-2.25.21-4.51.57a42.52,42.52,0,0,0-4.51,1,12.9,12.9,0,0,0-4,1.81,9.25,9.25,0,0,0-2.85,3.25,10.71,10.71,0,0,0-1.13,5.17,11.6,11.6,0,0,0,1,4.92,9.35,9.35,0,0,0,2.68,3.38,11.27,11.27,0,0,0,4,2,18.13,18.13,0,0,0,4.92.64,23,23,0,0,0,6.76-1,13.14,13.14,0,0,0,5.7-3.49,16,16,0,0,0,.26,1.83,13.17,13.17,0,0,0,.46,1.75h10.28a8.69,8.69,0,0,1-1-3.38,40.64,40.64,0,0,1-.28-4.78V201a8.86,8.86,0,0,0-1.5-5.39,10.32,10.32,0,0,0-3.85-3.18,17.27,17.27,0,0,0-5.22-1.53,41.31,41.31,0,0,0-5.63-.39,31.18,31.18,0,0,0-6.11.61,17.54,17.54,0,0,0-5.47,2,12.09,12.09,0,0,0-4,3.79,11.81,11.81,0,0,0-1.79,5.93h10.14Zm13.28,11.27a20.45,20.45,0,0,1-.17,2.25,7.89,7.89,0,0,1-1,2.82,6.76,6.76,0,0,1-2.42,2.39,9,9,0,0,1-4.64,1,12.66,12.66,0,0,1-2.36-.21,5.73,5.73,0,0,1-2-.74,3.83,3.83,0,0,1-1.35-1.47,4.71,4.71,0,0,1-.5-2.25,4.88,4.88,0,0,1,.5-2.36A4.51,4.51,0,0,1,374.1,214a6.83,6.83,0,0,1,1.93-1,18.54,18.54,0,0,1,2.25-.57c.81-.15,1.61-.26,2.42-.36s1.59-.21,2.32-.36a16.25,16.25,0,0,0,2.07-.54,4.51,4.51,0,0,0,1.6-.89v3.79Zm28.42-36.71v51H405V177.54h10.14Zm48.84,24a23.35,23.35,0,0,0,3.71-.28,8.58,8.58,0,0,0,3.14-1.13,6,6,0,0,0,2.18-2.32,9.78,9.78,0,0,0,0-7.89,6,6,0,0,0-2.18-2.32,8.62,8.62,0,0,0-3.14-1.13A23.49,23.49,0,0,0,464,186h-8.71v15.28H464Zm3.07-24a21.29,21.29,0,0,1,8.15,1.4,15.2,15.2,0,0,1,5.45,3.67,14.09,14.09,0,0,1,3.08,5.22,19.6,19.6,0,0,1,0,12.1,14,14,0,0,1-3.08,5.25,15.19,15.19,0,0,1-5.45,3.67A21.31,21.31,0,0,1,467,210.1H455.22v18.28H444V177.54h23Zm33.17,14.2v6.85h.19a12.4,12.4,0,0,1,1.93-3.18,12.69,12.69,0,0,1,2.78-2.5,13.63,13.63,0,0,1,3.38-1.61,12.21,12.21,0,0,1,3.72-.57,7.89,7.89,0,0,1,2.25.36v9.42c-.47-.09-1-.18-1.71-.25a18.17,18.17,0,0,0-1.93-.11,10.79,10.79,0,0,0-4.71.92,8.19,8.19,0,0,0-3.11,2.54,10.14,10.14,0,0,0-1.68,3.75,20.78,20.78,0,0,0-.5,4.64v16.63H490.67v-36.9h9.52Zm26.28,22.81a11.48,11.48,0,0,0,1.47,3.79,7.8,7.8,0,0,0,2.75,2.68,8.37,8.37,0,0,0,4.28,1,8.55,8.55,0,0,0,4.32-1,7.75,7.75,0,0,0,2.79-2.68,11.46,11.46,0,0,0,1.45-3.79,21.08,21.08,0,0,0,.43-4.32,21.62,21.62,0,0,0-.43-4.35,11.08,11.08,0,0,0-1.45-3.78,8.17,8.17,0,0,0-2.79-2.68,8.33,8.33,0,0,0-4.32-1,7.8,7.8,0,0,0-7,3.72,11.09,11.09,0,0,0-1.47,3.79,22.46,22.46,0,0,0-.43,4.35,21.91,21.91,0,0,0,.43,4.32ZM517.27,202a16.9,16.9,0,0,1,9.85-10.06,21.06,21.06,0,0,1,7.89-1.4,21.33,21.33,0,0,1,7.89,1.4,16.79,16.79,0,0,1,9.9,10.06,22.73,22.73,0,0,1,1.35,8,22.43,22.43,0,0,1-1.35,8,17.42,17.42,0,0,1-3.85,6.11,16.84,16.84,0,0,1-6,3.89,21.85,21.85,0,0,1-7.89,1.35,21.58,21.58,0,0,1-7.89-1.35,16.91,16.91,0,0,1-6-3.89,17.27,17.27,0,0,1-3.85-6.11,22.43,22.43,0,0,1-1.36-8,22.72,22.72,0,0,1,1.36-8Zm52.83,12.4a11.73,11.73,0,0,0,1.47,3.79,7.8,7.8,0,0,0,2.75,2.7,8.4,8.4,0,0,0,4.28,1,8.63,8.63,0,0,0,4.33-1,7.72,7.72,0,0,0,2.78-2.68,11.73,11.73,0,0,0,1.47-3.79,21.92,21.92,0,0,0,.43-4.32,22.46,22.46,0,0,0-.43-4.35,11.27,11.27,0,0,0-1.47-3.79,8.13,8.13,0,0,0-2.78-2.68,8.41,8.41,0,0,0-4.33-1,7.8,7.8,0,0,0-7,3.72,11.27,11.27,0,0,0-1.47,3.79,22.46,22.46,0,0,0-.43,4.35,21.92,21.92,0,0,0,.43,4.32ZM560.89,202a16.9,16.9,0,0,1,9.85-10.06,21.11,21.11,0,0,1,7.89-1.4,21.41,21.41,0,0,1,7.89,1.4A16.81,16.81,0,0,1,596.41,202a22.73,22.73,0,0,1,1.35,8,22.43,22.43,0,0,1-1.35,8,17.27,17.27,0,0,1-3.85,6.11,16.79,16.79,0,0,1-6,3.89,22,22,0,0,1-7.89,1.35,21.63,21.63,0,0,1-7.89-1.35,16.91,16.91,0,0,1-6-3.89,17.27,17.27,0,0,1-3.85-6.11,22.43,22.43,0,0,1-1.35-8,22.72,22.72,0,0,1,1.35-8Zm39.56-3.67v-6.76h6.07v-2.85a11,11,0,0,1,3.07-8.07c2.05-2.1,5.14-3.14,9.29-3.14a22,22,0,0,1,2.72.11l2.64.18v7.57a31.07,31.07,0,0,0-3.71-.21,3.87,3.87,0,0,0-3,1,4.72,4.72,0,0,0-.9,3.25v2.25h7v6.76h-7v30.14H606.52V198.35h-6.07Z"/></g><g id="Layer_2-2-2" data-name="Layer 2-2"><path class="cls-2" d="M285.61,287.73a8.45,8.45,0,1,0,8.45-8.45,8.45,8.45,0,0,0-8.45,8.45Z"/><path class="cls-2" d="M342,287.73a8.45,8.45,0,1,0,8.45-8.45,8.45,8.45,0,0,0-8.45,8.45Z"/><path class="cls-2" d="M398.31,287.73a8.45,8.45,0,1,0,8.45-8.45,8.45,8.45,0,0,0-8.45,8.45Z"/></g></g></g></g></svg>